<mxfile host="65bd71144e">
    <diagram id="1V9B2YuyvByOVDzqPXbI" name="Page-1">
        <mxGraphModel dx="680" dy="513" grid="1" gridSize="10" guides="1" tooltips="1" connect="1" arrows="1" fold="1" page="1" pageScale="1" pageWidth="827" pageHeight="1169" math="1" shadow="0">
            <root>
                <mxCell id="0"/>
                <mxCell id="1" parent="0"/>
                <mxCell id="2" value="" style="shape=stencil(lVzZsh23DfwavU5xA5dnx/kPV1mOVFEkl6xsf59mbnHuYWOmp/x2l8EZLmCj0QDPh/zTH59++f3jhxT++PH9298//vvzrz8+fch/+ZDS56+fPn7//AM/fcg/f8g//fbt+8e/ff/2z6+/vv3++y/zyfnTP779a37Cf97s2hHDNErhv29/iOno9v+//PXt+S+fv748H+MRbDewYwxhUI6cd4NxpCAM6lH2IaV4mDLoR227QTmiGFIKRx+7wbkM1wZYk7IbDDlpDMDSZpDTeue1gR297wZ2tCgM2hHoDf3I6g2dd7qEY6g3jCPE3SAfUbgGDPq+D8WO0O8NcjgaDakeTcwhx6PsG1cwabFxWPW4b1wZh2VhgCnuy2pw+CINxj5pS0dRBoW91crR1CqVtU2nQT1y0gY0B6xS1UPaV6liZ/Qc0j6HmvU+5LWvpwFQQ+9DIoO+9v5up/sOMy2sv9wZ2D7plo4h3BsGZUe+Vo6u9gFD2t271bVud5M2MmjyTGMfeEjYabVxdtTdNdo4ohoSYCazwVBvALjvb+hBrlJJC6tPg3hUsQ8AlboPqacjiwOEI0/IBwOFfDjBtp+4DncUQzJgdWODIs4DDmRLbJDFPtToVimtiHFtkBbOvSyrClkwGOR8Y8HznUHdVwne2oVrwCCSgR2mhhQXkp4GecWka4PA+1B1nIZBJIMqDQzhwyGfOg/YaQLjqnFpYjWhd5NQiX+TL8Edk3ANGFBQhMPLOVSGSgsSKjGAvuMSzmDRBuQaCOxRHVFEoN29H6iDuYACHDGBS1iTtDOyAlap9iGyLwHaTE06MLaCkVUxB6xJr5sBOF8Vq1Qan4cMcq2gEou4bxxCjJoDFrHvGzejnoL7slztNIjyTMMgUTqgQxZYKsU4cGUVFN9p7WlgOgIlnnTKEjWKA2NkFEVNGhGN3hDWO+8MaJWQZSmSOMMupWXtaQ7k3kj8TLBKGDR6Q5YHCPtArBLJpopxMKCQFXGARMiCL5FrDImU8G4KQP0I6vPromsn2K8DeHc+036gbWH5HQAwiGnAGOu0n4dt7ckdIo19PCcpuMNIgoskE2/AfKANk/iFSJVJbDiCjs5t368gD3J16WGQBL0WJoaAcHEEQCYo1wvSf5DjGI8nCH9AikPaSpCJHjIcym6jDMvNHTDNUsHnSCepcr7IVgh5hxw/UgmiOoAUaZBZh4l9LcG1QeUUDFMu6g1jgeBLeFLy1kgrU34JsYoQjjMCv9CEKFBrOBR60GFGY6QGcKggPvrSpl40jKzmcO7riyShdBgYtN0AZ7WoIY1Fkl+YfFBCZggMRkgWVB45X0HZdpLHAQbdJTwqAsKg7rNuJwLeGZhLz5VGBwMSV3Gm5EZ0FjG6FojhTJTw9CLFVbgrqYDdJHUZxhI0Tm1VBnmh9GlwDvLaIDBu45grAWB+3h5oh2Yi3c1hRBlqseqULGBWKkOCI/AbioSNCd47bGChk4o+TgDAVkYVDseK3qdBk8BUjeMbDJSMXiMLYvBfJTFYY6zECZEUJq9FfDFQnAqcjeTbF+S5Y6mU5g2tuRVXk5m4IHYuN7dzXWo9MwssvBGK/COpI5FuaCqQ3DLBXRV+g1pkGlKUG4FATgpxHzLznOSIDEzKHki5AqULSeq3sfIqgREpJItlwdCLBq02LjrYeJDFB5czapOL1PlIVy2VVs6oJmcXMy4MrLP4oWR9ZqA4sCr5TxzTTacMXhXquprpqFWV6xmZHQINVAoQVtL+Ijqp4OkU0hIkogamt7nLalVgAJ6KkwCKwGcsF4l1gTPCrJX2wPsFZFJ1VTxPelaQ+xWcdtSXdHPzfNjHgxOh/M2R1ATmIDhn4LLwTPnl+lBdYXq43C9zwpRCXVdqn9V/sb/RdQs06W+RlWZgqmLMif0tmtzfzP4QHyQUF+0RRZSkwGr/fF6c3+pEtSjroo3xGc9XJRGsjObleVV9aEwMovYfPN/5eRXxGitYeH4oFsuKGvZLSXyV5Wg8b6rExMk4nq+q6OVk1izPu7GCNccjn6d8Lup4Z4xXeF71NxjzB6y/whNjCoTnH8bj9lfxRKfIRo3nttDj5Xm9v9GdF30ea3DPS/4z/Hjk+U1uPIq/NdavsJ5KELg6j6rZqrHgMPvFNJ44f1b5VXPtZflhPWvn55Wk/GefL05xNFlnLCsDfolfOr6Q0hD7A79NtJ5D94lxLomIqQTQxPiWtD8kFvYm3xDxzvHnyfBV2xr7z0RggednXe2Fjym+kTi+JJ1rJ8eHz0z35nlqrQJfVfwwsb898OHE4tkD306ccU4+r+dL+U5YNZ+7zyex+qyx3PnnPt+SdQsgx69icjyZ179o6a+wfyIfVPtlfN5Nd5FV9/kmdT8nzSNfVvzKCe01LSX9mj9H7teqVRLK6Kq0LawYdW1giwC/aBZKBQdiEqdvfbGQax8KDIo9yqTBe3U3uarJ9WD2LmUOH/eGzrNn8+x+kB/03eyQd5Sl3VwbmFNfq+5U9aJ2k7WCErkpZ+hkeCqdnQ0eCuDdC5eq1ymxnjUFYfGG2RxlPGmVcMzOvMoGspWvsGQzTlJybeD624etTus7YZ7nUCQoNbvwJcVacCALGWjYw4HkN0TJG7sD4llREc7XGysrs2YjThz+Tc0gXRcX5oipUFUlNxqZZfauKyrDHVEsg8rO4DlcbEtLsLg2aK6yFXTltrmi55CCJM4XKSat6YjVV4J1GmiJa55gqpIm2QUwOu9DHVI0HJ2zHARFWcPsLJu899/eLivdAuiylWeCyr5KVmQFZnYBEDMJkvkPl+oXk9IV3Jt6zmb/onqDay/KJp1vBtl90giTiu3hfFFDT9JVpO7b4Lp8A7yfBPpYpLc21wMUg6ySgh1Ryl8lY53OT/smIxzoGrVWaEVtXrygCcgGgOolShmiq0+xpcJRfYoqt7g6dqgzWnO0J0vAM3M9s1IRtOxSHpmhgsJQyaPINntz862yQgVOxbcdJNsuLoQMiY2lcmdODHLCMKAiZ9QXAMuVqKkOMXinuV7WBwOWWZvkOxcGY5HjWwPyUg2ms5eVKkNJ4kop7HcPpaH3rrHTwGR7ZHGZ3oQuxf+Njxp8T50duAY1SOUgIzmcleuRD6vULwqMihWWs2nsJaip5jmcT74b2iQVtsiAnYdEYEucrRYtUlm5uOqpMMNcWf69tfoOJKkO+FAHt8qFkNLk1QXANil/s/NGeCsIF016lv71VR5ihVholbjZcJdJTRdbXP/yvNyjLzyx3KP7zpCtEsmrWb8hsmBeq4TKmpioVq1QYwAk+c/GMpVAu0aeptUbMAzKVpGSqPMwKQkZDKmS1sIpybzEqBrVMuvOPUt2jn2gQmt/uI7UmZbAQFV+4ZvVJZ9KjDGnzfeir190bs6BgdSHjJlAz5IbTpxzFzFV02Pu7oaH7jPO7mpb1wXF7Fq2ZsetvmdM1+jhfFKni9zT03ST+/uNq9PgvOF3bRDYl2bbmTYgXQJnWpWFspMOmwYy32CIPEWBQHadcNVkJ0d2vBuHVpUy5o1yQr4ga4vTYD9x1rXzJf7+A4TJhzeQWD9vWup9IPeeFyfVKrmNM31paxI2F3afvlbCtdypN7xfwHihDrLm5tTMeTdUFa1cCgS+pMSYVPn7D4BUsi3R+IYFkEqxypn072/IVX8JSuZOmawr7fOuFvFWnaHEwbXJWc1SlaLGByjp4md08WHWlx+KV3QRM0j1Jrp+uli1WnLRv6C0emOgnKmr7JehEDr7F2S/DDne7KeQn++fVznf1XjkxW0nBqQlCt6tZ+Xn5ZcMsGIYk6ar3P8/+9EUcbvqX5P9fRSbHz+f5PaH8f/Z7296fh4/vH9Z1G+fv3x5+66p1//zl0vhT29fTJV//h8=);lineShape=1;fillColor=#d80073;fontColor=#ffffff;strokeColor=#FFCCE6;" parent="1" vertex="1">
                    <mxGeometry x="70.0030323339129" y="230.00186340061003" width="149.99304181554294" height="171.54727939494705" as="geometry"/>
                </mxCell>
                <mxCell id="3" value="" style="whiteSpace=wrap;html=1;" vertex="1" parent="1">
                    <mxGeometry x="280" y="160" width="190" height="280" as="geometry"/>
                </mxCell>
                <mxCell id="4" value="" style="rhombus;whiteSpace=wrap;html=1;" vertex="1" parent="1">
                    <mxGeometry x="255" y="180" width="240" height="240" as="geometry"/>
                </mxCell>
            </root>
        </mxGraphModel>
    </diagram>
</mxfile>